<?xml version="1.0" encoding="UTF-8" standalone="no"?>
<!-- Created with Inkscape (http://www.inkscape.org/) -->

<svg
   width="60.26152mm"
   height="6.4134989mm"
   viewBox="0 0 60.26152 6.4134989"
   version="1.1"
   id="svg1"
   inkscape:version="1.4 (e7c3feb100, 2024-10-09)"
   sodipodi:docname="mastodon-academy.svg"
   xmlns:inkscape="http://www.inkscape.org/namespaces/inkscape"
   xmlns:sodipodi="http://sodipodi.sourceforge.net/DTD/sodipodi-0.dtd"
   xmlns="http://www.w3.org/2000/svg"
   xmlns:svg="http://www.w3.org/2000/svg">
  <sodipodi:namedview
     id="namedview1"
     pagecolor="#ffffff"
     bordercolor="#666666"
     borderopacity="1.0"
     inkscape:showpageshadow="2"
     inkscape:pageopacity="0.0"
     inkscape:pagecheckerboard="0"
     inkscape:deskcolor="#d1d1d1"
     inkscape:document-units="mm"
     inkscape:zoom="2.6582969"
     inkscape:cx="196.55442"
     inkscape:cy="-21.63039"
     inkscape:window-width="1533"
     inkscape:window-height="2072"
     inkscape:window-x="20"
     inkscape:window-y="20"
     inkscape:window-maximized="0"
     inkscape:current-layer="layer1" />
  <defs
     id="defs1" />
  <g
     inkscape:label="Layer 1"
     inkscape:groupmode="layer"
     id="layer1"
     transform="translate(-52.70234,-59.009495)">
    <path
       style="font-size:6.35px;line-height:1.25;font-family:'Galano Grotesque Alt';-inkscape-font-specification:'Galano Grotesque Alt, Normal';font-variant-ligatures:none;text-align:center;text-anchor:middle;fill:#787878;fill-opacity:1;stroke-width:0.264583"
       d="m 112.96386,60.768444 h -0.53975 l -1.143,2.5019 -1.1176,-2.5019 h -0.5461 l 1.40335,3.0861 -0.71755,1.56845 h 0.53975 z"
       id="path49" />
    <path
       style="font-size:6.35px;line-height:1.25;font-family:'Galano Grotesque Alt';-inkscape-font-specification:'Galano Grotesque Alt, Normal';font-variant-ligatures:none;text-align:center;text-anchor:middle;fill:#787878;fill-opacity:1;stroke-width:0.264583"
       d="m 107.94736,60.692244 c -0.5334,0 -0.9398,0.24765 -1.1811,0.635 -0.18415,-0.40005 -0.5842,-0.635 -1.0668,-0.635 -0.48895,0 -0.84455,0.20955 -1.0668,0.55245 v -0.47625 h -0.4826 v 3.13055 h 0.4826 v -1.6002 c 0,-0.7366 0.37465,-1.16205 0.9525,-1.16205 0.46355,0 0.8001,0.32385 0.8001,0.81915 v 1.9431 h 0.4826 v -1.6002 c 0,-0.7366 0.381,-1.16205 0.95885,-1.16205 0.4699,0 0.80645,0.32385 0.80645,0.81915 v 1.9431 h 0.4826 v -2.02565 c 0,-0.7112 -0.508,-1.1811 -1.1684,-1.1811 z"
       id="path48" />
    <path
       style="font-size:6.35px;line-height:1.25;font-family:'Galano Grotesque Alt';-inkscape-font-specification:'Galano Grotesque Alt, Normal';font-variant-ligatures:none;text-align:center;text-anchor:middle;fill:#787878;fill-opacity:1;stroke-width:0.264583"
       d="m 103.31821,62.254344 c -0.0317,-0.93345 -0.69215,-1.5621 -1.5367,-1.5621 -0.8636,0 -1.61925,0.6477 -1.61925,1.651 0,0.99695 0.75565,1.6383 1.5875,1.6383 0.70485,0 1.25095,-0.3429 1.4986,-0.99695 l -0.4318,-0.1016 c -0.22225,0.50165 -0.6223,0.6731 -1.0668,0.6731 -0.53975,0 -1.07315,-0.4191 -1.1176,-1.12395 h 2.68605 z m -1.5367,-1.13665 c 0.5207,0 0.95885,0.33655 1.04775,0.9525 h -2.17805 c 0.0952,-0.61595 0.6223,-0.9525 1.1303,-0.9525 z"
       id="path47" />
    <path
       style="font-size:6.35px;line-height:1.25;font-family:'Galano Grotesque Alt';-inkscape-font-specification:'Galano Grotesque Alt, Normal';font-variant-ligatures:none;text-align:center;text-anchor:middle;fill:#787878;fill-opacity:1;stroke-width:0.264583"
       d="m 99.330405,59.009495 h -0.4826 v 2.285999 c -0.27305,-0.381 -0.7112,-0.60325 -1.2446,-0.60325 -0.83185,0 -1.5621,0.65405 -1.5621,1.64465 0,0.9906 0.73025,1.64465 1.5621,1.64465 0.5334,0 0.97155,-0.22225 1.2446,-0.60325 v 0.5207 h 0.4826 z m -1.651,4.540249 c -0.6477,0 -1.1684,-0.4699 -1.1684,-1.21285 0,-0.7493 0.5207,-1.2192 1.1684,-1.2192 0.59055,0 1.1684,0.4699 1.1684,1.2192 0,0.74295 -0.57785,1.21285 -1.1684,1.21285 z"
       id="path46" />
    <path
       style="font-size:6.35px;line-height:1.25;font-family:'Galano Grotesque Alt';-inkscape-font-specification:'Galano Grotesque Alt, Normal';font-variant-ligatures:none;text-align:center;text-anchor:middle;fill:#787878;fill-opacity:1;stroke-width:0.264583"
       d="m 94.066255,60.692244 c -0.6858,0 -1.21285,0.38735 -1.31445,0.9525 l 0.46355,0.1016 c 0.06985,-0.3937 0.40005,-0.62865 0.8763,-0.62865 0.4826,0 0.8001,0.2921 0.8001,0.78105 v 0.14605 h -1.0541 c -0.81915,0 -1.2573,0.4064 -1.2573,0.9779 0,0.56515 0.45085,0.95885 1.13665,0.95885 0.53975,0 0.93345,-0.23495 1.17475,-0.5588 v 0.47625 h 0.4699 v -2.032 c 0,-0.75565 -0.51435,-1.17475 -1.2954,-1.17475 z m -0.2794,2.88925 c -0.45085,0 -0.74295,-0.23495 -0.74295,-0.56515 0,-0.3429 0.27305,-0.59055 0.7874,-0.59055 h 1.06045 v 0.1651 c 0,0.56515 -0.4953,0.9906 -1.1049,0.9906 z"
       id="path45" />
    <path
       style="font-size:6.35px;line-height:1.25;font-family:'Galano Grotesque Alt';-inkscape-font-specification:'Galano Grotesque Alt, Normal';font-variant-ligatures:none;text-align:center;text-anchor:middle;fill:#787878;fill-opacity:1;stroke-width:0.264583"
       d="m 90.573755,63.530694 c -0.64135,0 -1.16205,-0.46355 -1.16205,-1.1938 0,-0.71755 0.5207,-1.20015 1.16205,-1.20015 0.46355,0 0.86995,0.254 1.02235,0.7366 l 0.46355,-0.1397 c -0.2032,-0.64135 -0.8001,-1.0414 -1.4859,-1.0414 -0.88265,0 -1.63195,0.6604 -1.63195,1.64465 0,0.99695 0.7493,1.64465 1.63195,1.64465 0.69215,0 1.2954,-0.41275 1.47955,-1.03505 l -0.4445,-0.12065 c -0.1651,0.4572 -0.5715,0.70485 -1.03505,0.70485 z"
       id="path44" />
    <path
       style="font-size:6.35px;line-height:1.25;font-family:'Galano Grotesque Alt';-inkscape-font-specification:'Galano Grotesque Alt, Normal';font-variant-ligatures:none;text-align:center;text-anchor:middle;fill:#787878;fill-opacity:1;stroke-width:0.264583"
       d="m 88.668753,63.898994 -1.905,-4.254499 h -0.46355 l -1.905,4.254499 h 0.53975 l 0.47625,-1.0795 h 2.24155 l 0.47625,1.0795 z m -1.21285,-1.53035 h -1.84785 l 0.9271,-2.101849 z"
       id="path43" />
    <path
       style="font-size:6.35px;line-height:1.25;font-family:'Galano Grotesque Alt';-inkscape-font-specification:'Galano Grotesque Alt, Normal';font-variant-ligatures:none;text-align:center;text-anchor:middle;fill:#4285f4;fill-opacity:1;stroke-width:0.264583"
       d="m 80.991595,60.692244 c -0.52705,0 -0.9271,0.2159 -1.1811,0.5969 v -0.5207 h -0.4826 v 3.13055 h 0.4826 v -1.50495 c 0,-0.8128 0.4318,-1.2573 1.08585,-1.2573 0.5207,0 0.86995,0.3937 0.86995,0.9779 v 1.78435 h 0.4826 v -1.87325 c 0,-0.79375 -0.50165,-1.3335 -1.2573,-1.3335 z"
       id="path42" />
    <path
       style="font-size:6.35px;line-height:1.25;font-family:'Galano Grotesque Alt';-inkscape-font-specification:'Galano Grotesque Alt, Normal';font-variant-ligatures:none;text-align:center;text-anchor:middle;fill:#fbbc07;fill-opacity:1;stroke-width:0.264583"
       d="m 76.845045,60.698594 c -0.93345,0 -1.6637,0.6731 -1.6637,1.63195 0,0.95885 0.73025,1.64465 1.6637,1.64465 0.92075,0 1.65735,-0.6858 1.65735,-1.64465 0,-0.95885 -0.7366,-1.63195 -1.65735,-1.63195 z m 0,2.85115 c -0.6477,0 -1.1938,-0.4953 -1.1938,-1.2192 0,-0.71755 0.5461,-1.2065 1.1938,-1.2065 0.64135,0 1.1811,0.48895 1.1811,1.2065 0,0.7239 -0.53975,1.2192 -1.1811,1.2192 z"
       id="path41" />
    <path
       style="font-size:6.35px;line-height:1.25;font-family:'Galano Grotesque Alt';-inkscape-font-specification:'Galano Grotesque Alt, Normal';font-variant-ligatures:none;text-align:center;text-anchor:middle;fill:#ea4436;fill-opacity:1;stroke-width:0.264583"
       d="m 74.349494,59.009495 h -0.4826 v 2.285999 c -0.27305,-0.381 -0.7112,-0.60325 -1.2446,-0.60325 -0.83185,0 -1.5621,0.65405 -1.5621,1.64465 0,0.9906 0.73025,1.64465 1.5621,1.64465 0.5334,0 0.97155,-0.22225 1.2446,-0.60325 v 0.5207 h 0.4826 z m -1.651,4.540249 c -0.6477,0 -1.1684,-0.4699 -1.1684,-1.21285 0,-0.7493 0.5207,-1.2192 1.1684,-1.2192 0.59055,0 1.1684,0.4699 1.1684,1.2192 0,0.74295 -0.57785,1.21285 -1.1684,1.21285 z"
       id="path40" />
    <path
       style="font-size:6.35px;line-height:1.25;font-family:'Galano Grotesque Alt';-inkscape-font-specification:'Galano Grotesque Alt, Normal';font-variant-ligatures:none;text-align:center;text-anchor:middle;fill:#34a853;fill-opacity:1;stroke-width:0.264583"
       d="m 68.863096,60.698594 c -0.93345,0 -1.6637,0.6731 -1.6637,1.63195 0,0.95885 0.73025,1.64465 1.6637,1.64465 0.92075,0 1.65735,-0.6858 1.65735,-1.64465 0,-0.95885 -0.7366,-1.63195 -1.65735,-1.63195 z m 0,2.85115 c -0.6477,0 -1.1938,-0.4953 -1.1938,-1.2192 0,-0.71755 0.5461,-1.2065 1.1938,-1.2065 0.64135,0 1.1811,0.48895 1.1811,1.2065 0,0.7239 -0.53975,1.2192 -1.1811,1.2192 z"
       id="path39" />
    <path
       style="font-size:6.35px;line-height:1.25;font-family:'Galano Grotesque Alt';-inkscape-font-specification:'Galano Grotesque Alt, Normal';font-variant-ligatures:none;text-align:center;text-anchor:middle;fill:#4285f4;fill-opacity:1;stroke-width:0.264583"
       d="m 66.799347,63.333844 c -0.15875,0.1143 -0.3556,0.1905 -0.5334,0.1905 -0.34925,0 -0.57785,-0.2286 -0.57785,-0.635 v -1.7145 h 1.1176 v -0.4064 h -1.1176 v -1.123949 h -0.48895 v 1.123949 h -0.679449 v 0.4064 h 0.679449 v 1.74625 c 0,0.69215 0.41275,1.06045 1.03505,1.06045 0.254,0 0.4699,-0.06985 0.7239,-0.24765 z"
       id="path38" />
    <path
       style="font-size:6.35px;line-height:1.25;font-family:'Galano Grotesque Alt';-inkscape-font-specification:'Galano Grotesque Alt, Normal';font-variant-ligatures:none;text-align:center;text-anchor:middle;fill:#fbbc07;fill-opacity:1;stroke-width:0.264583"
       d="m 61.598694,63.054444 c 0.0762,0.6096 0.6477,0.9271 1.36525,0.9271 0.7493,0 1.26365,-0.34925 1.26365,-0.9652 0,-0.47625 -0.34925,-0.71755 -0.80645,-0.81915 l -0.75565,-0.1651 c -0.3048,-0.06985 -0.47625,-0.18415 -0.47625,-0.4318 0,-0.29845 0.24765,-0.51435 0.69215,-0.51435 0.46355,0 0.762,0.23495 0.8255,0.57785 l 0.46355,-0.1016 c -0.1143,-0.508 -0.5715,-0.86995 -1.27635,-0.86995 -0.71755,0 -1.18745,0.381 -1.18745,0.94615 0,0.4318 0.2921,0.69215 0.8128,0.8001 l 0.71755,0.15875 c 0.3175,0.06985 0.51435,0.1905 0.51435,0.45085 0,0.32385 -0.29845,0.5334 -0.7493,0.5334 -0.4953,0 -0.8763,-0.22225 -0.92075,-0.635 z"
       id="path37" />
    <path
       style="font-size:6.35px;line-height:1.25;font-family:'Galano Grotesque Alt';-inkscape-font-specification:'Galano Grotesque Alt, Normal';font-variant-ligatures:none;text-align:center;text-anchor:middle;fill:#ea4436;fill-opacity:1;stroke-width:0.264583"
       d="m 59.604794,60.692244 c -0.6858,0 -1.21285,0.38735 -1.31445,0.9525 l 0.46355,0.1016 c 0.06985,-0.3937 0.40005,-0.62865 0.8763,-0.62865 0.4826,0 0.8001,0.2921 0.8001,0.78105 v 0.14605 h -1.0541 c -0.81915,0 -1.2573,0.4064 -1.2573,0.9779 0,0.56515 0.45085,0.95885 1.13665,0.95885 0.53975,0 0.93345,-0.23495 1.17475,-0.5588 v 0.47625 h 0.4699 v -2.032 c 0,-0.75565 -0.51435,-1.17475 -1.2954,-1.17475 z m -0.2794,2.88925 c -0.45085,0 -0.74295,-0.23495 -0.74295,-0.56515 0,-0.3429 0.27305,-0.59055 0.7874,-0.59055 h 1.06045 v 0.1651 c 0,0.56515 -0.4953,0.9906 -1.1049,0.9906 z"
       id="path36" />
    <path
       style="font-size:6.35px;line-height:1.25;font-family:'Galano Grotesque Alt';-inkscape-font-specification:'Galano Grotesque Alt, Normal';font-variant-ligatures:none;text-align:center;text-anchor:middle;fill:#4285f4;fill-opacity:1;stroke-width:0.264583"
       d="m 57.28704,59.644495 h -0.43815 l -1.8542,3.505199 -1.8542,-3.505199 h -0.43815 v 4.254499 h 0.4826 v -3.1242 l 1.651,3.1242 h 0.32385 l 1.64465,-3.1242 v 3.1242 h 0.4826 z"
       id="text35" />
  </g>
</svg>
